<?xml version="1.0" encoding="UTF-8"?>
<svg id="Layer_1" data-name="Layer 1" xmlns="http://www.w3.org/2000/svg" viewBox="0 0 473.39 385.86">
  <defs>
    <style>
      .cls-1 {
        fill: #231f20;
      }
    </style>
  </defs>
  <path class="cls-1" d="M426.27,0H14.38C6.44,0,0,6.44,0,14.38V338.73s0,14.84,0,14.84v17.91c0,7.94,6.44,14.38,14.38,14.38H115.03s49.78,0,49.78,0h160.64c45.14,0,81.08-12.39,107.86-37.17,26.33-24.39,39.65-57.16,40.08-98.24V14.38C473.39,6.44,466.96,0,459.02,0h-32.75Zm-31.12,314.5c-19.03,16.15-44.26,24.23-75.67,24.23H179.19c-7.94,0-14.38-6.44-14.38-14.38V176.54c0-7.94,6.44-14.38,14.38-14.38h140.29c31.42,0,56.64,8.08,75.67,24.23,18.55,15.77,28,37.14,28.45,64.06-.45,26.92-9.9,48.29-28.45,64.06Zm31.12-194.78c0,10.73-11.38,17.79-20.88,12.82-22.32-11.67-48.96-17.5-79.93-17.5H129.41c-7.94,0-14.38,6.44-14.38,14.38v194.94c0,7.94-6.44,14.38-14.38,14.38H61.5c-7.94,0-14.38-6.44-14.38-14.38V61.5c0-7.94,6.44-14.38,14.38-14.38H411.89c7.94,0,14.38,6.44,14.38,14.38v58.22Z"/>
</svg>