<?xml version="1.0" encoding="UTF-8"?>
<svg id="Layer_1" data-name="Layer 1" xmlns="http://www.w3.org/2000/svg" viewBox="0 0 851.03 82.43">
  <defs>
    <style>
      .cls-1 {
        fill: #231f20;
      }
    </style>
  </defs>
  <path class="cls-1" d="M183.99,52.77c2.41-1.27,4.41-3.14,6.01-5.62,1.6-2.48,2.39-5.8,2.39-9.97,0-.1-.01-.19-.01-.29h0V0H0V56.82H16.94v24.83h7.33v-24.83h53.55l-10.54,24.83h8.11l7.92-18.77,2.55-6.06h26.97l2.55,6.06,7.92,18.77h8.11l-10.54-24.83h18.75v24.83h7.33v-24.83h22.48l15.64,24.83h8.7l-17.01-26.1c2.41-.59,4.82-1.52,7.23-2.79Zm-124.09-7.82c-1.66,1.86-3.7,3.14-6.11,3.86-2.41,.72-4.79,1.08-7.14,1.08H24.27V23.88h22.78c4.63,0,8.34,1.19,11.14,3.57,2.8,2.38,4.2,5.62,4.2,9.73,0,3.32-.83,5.91-2.49,7.77Zm28.86,4.94l10.58-25.32,10.58,25.32h-21.16Zm50.85-32.94V49.88h-21.69l-13.98-32.94h-9.19l-13.98,32.94h-15.64c.8-.82,1.55-1.71,2.21-2.74,1.6-2.48,2.39-5.8,2.39-9.97,0-6.19-1.97-11.11-5.91-14.76-3.94-3.65-9.24-5.47-15.88-5.47H16.94V49.88H6.94V6.94H185.46v14.62c-3.82-3.06-8.76-4.62-14.85-4.62h-30.99Zm29.72,32.94h-22.38V23.88h22.78c4.63,0,8.34,1.19,11.14,3.57,2.8,2.38,4.2,5.62,4.2,9.73,0,3.32-.83,5.91-2.49,7.77-1.66,1.86-3.7,3.14-6.11,3.86-2.41,.72-4.79,1.08-7.14,1.08Z"/>
  <polygon class="cls-1" points="258.67 16.94 248.31 16.94 212.34 50.66 212.34 16.94 205.01 16.94 205.01 81.65 212.34 81.65 212.34 60.44 225.73 47.93 251.05 81.65 260.24 81.65 231.11 42.94 258.67 16.94"/>
  <polygon class="cls-1" points="267.67 45.83 267.67 52.77 267.67 81.65 315.27 81.65 315.27 74.61 275 74.61 275 52.81 275 52.77 311.03 52.77 311.03 45.83 275 45.83 275 23.98 315.27 23.98 315.27 16.94 267.67 16.94 267.67 45.83"/>
  <path class="cls-1" d="M371.48,52.77c2.41-1.27,4.41-3.14,6.01-5.62,1.6-2.48,2.39-5.8,2.39-9.97,0-6.19-1.97-11.11-5.91-14.76-3.94-3.65-9.24-5.47-15.88-5.47h-30.99V81.65h7.33v-24.83h22.48l15.64,24.83h8.7l-17.01-26.1c2.41-.59,4.82-1.52,7.23-2.79Zm-14.66-2.88h-22.38V23.88h22.78c4.63,0,8.34,1.19,11.14,3.57,2.8,2.38,4.2,5.62,4.2,9.73,0,3.32-.83,5.91-2.49,7.77-1.66,1.86-3.7,3.14-6.11,3.86-2.41,.72-4.79,1.08-7.14,1.08Z"/>
  <polygon class="cls-1" points="458.28 45.68 420.64 45.68 420.64 16.94 413.31 16.94 413.31 81.65 420.64 81.65 420.64 52.81 458.28 52.81 458.28 81.65 465.61 81.65 465.61 16.94 458.28 16.94 458.28 45.68"/>
  <polygon class="cls-1" points="481.44 81.65 529.05 81.65 529.05 74.61 488.77 74.61 488.77 52.81 524.75 52.81 524.75 45.68 488.77 45.68 488.77 23.98 529.05 23.98 529.05 16.94 481.44 16.94 481.44 81.65"/>
  <polygon class="cls-1" points="572.54 47.63 549.38 16.94 540.87 16.94 540.87 81.65 548.2 81.65 548.2 28.08 572.54 58.87 596.49 28.08 596.49 81.65 603.82 81.65 603.82 16.94 595.32 16.94 572.54 47.63"/>
  <polygon class="cls-1" points="651.33 47.63 628.16 16.94 619.66 16.94 619.66 81.65 626.99 81.65 626.99 28.08 651.33 58.87 675.28 28.08 675.28 81.65 682.61 81.65 682.61 16.94 674.11 16.94 651.33 47.63"/>
  <rect class="cls-1" x="698.45" y="16.94" width="7.33" height="64.71"/>
  <polygon class="cls-1" points="770.1 71.39 730.12 16.94 721.61 16.94 721.61 81.65 728.94 81.65 728.94 27.01 768.92 81.65 777.43 81.65 777.43 16.94 770.1 16.94 770.1 71.39"/>
  <path class="cls-1" d="M820.63,47.24v6.65h23.66c0,4.5-1.09,8.34-3.27,11.54-2.18,3.19-5.02,5.64-8.5,7.33-3.49,1.7-7.18,2.54-11.09,2.54-5.21,0-9.69-1.16-13.44-3.47-3.75-2.31-6.6-5.44-8.55-9.38-1.96-3.94-2.93-8.32-2.93-13.15s.99-9.29,2.98-13.2c1.99-3.91,4.87-7.02,8.65-9.33,3.78-2.31,8.28-3.47,13.49-3.47s9.17,1.01,12.66,3.03c3.49,2.02,6.21,4.76,8.16,8.21h8.02c-2.41-5.41-6.17-9.82-11.29-13.25-5.12-3.42-11.16-5.13-18.13-5.13-6.45,0-12.07,1.48-16.86,4.45-4.79,2.97-8.49,6.96-11.09,11.97-2.61,5.02-3.91,10.59-3.91,16.72s1.27,11.7,3.81,16.72c2.54,5.02,6.17,9.01,10.9,11.97,4.72,2.97,10.38,4.45,16.96,4.45,3.91,0,7.38-.59,10.41-1.76s5.62-2.69,7.77-4.55,3.91-3.83,5.28-5.91v11.44h6.75V47.24h-30.4Z"/>
</svg>